<svg fill="#ffffff" xmlns="http://www.w3.org/2000/svg" viewBox="0 0 24 24" width="24px" height="24px" data-originalfillcolor="#1a1a1a" transform="rotate(0) scale(1, 1)">    <path d="M 6 2 C 4.895 2 4 2.895 4 4 L 4 20 C 4 21.105 4.895 22 6 22 L 18 22 C 19.105 22 20 21.105 20 20 L 20 4 C 20 2.895 19.105 2 18 2 L 14 2 L 8 2 L 6 2 z M 6 4 L 8 4 L 8 12 L 11 10.5 L 14 12 L 14 4 L 18 4 L 18 20 L 6 20 L 6 4 z M 10 4 L 12 4 L 12 8.7636719 L 11.894531 8.7109375 L 11 8.2636719 L 10.105469 8.7109375 L 10 8.7636719 L 10 4 z"/></svg>