<svg xmlns="http://www.w3.org/2000/svg" xmlns:xlink="http://www.w3.org/1999/xlink" viewBox="0,0,256,256" width="24px" height="24px" fill-rule="nonzero"><g fill="#ffffff" fill-rule="nonzero" stroke="none" stroke-width="1" stroke-linecap="butt" stroke-linejoin="miter" stroke-miterlimit="10" stroke-dasharray="" stroke-dashoffset="0" font-family="none" font-weight="none" font-size="none" text-anchor="none" style="mix-blend-mode: normal"><g transform="scale(10.66667,10.66667)"><path d="M12,3c-2.19729,0 -4,1.80271 -4,4c0,2.19729 1.80271,4 4,4c2.19729,0 4,-1.80271 4,-4c0,-2.19729 -1.80271,-4 -4,-4zM12,5c1.11641,0 2,0.88359 2,2c0,1.11641 -0.88359,2 -2,2c-1.11641,0 -2,-0.88359 -2,-2c0,-1.11641 0.88359,-2 2,-2zM12,14c-3.141,0 -9,1.545 -9,4.5v2.5h11.18555l-1.2168,-1.05273l-1.0957,-0.94727h-6.87305v-0.5c0,-0.869 3.708,-2.5 7,-2.5c1.406,0 2.88705,0.29903 4.12305,0.70703l0.7793,-1.85156c-1.68,-0.566 -3.54534,-0.85547 -4.90234,-0.85547zM19.01172,15l-1.32812,3.14258l-3.40625,0.29102l2.58203,2.23633l-0.77539,3.32813l2.92773,-1.76367l2.92773,1.76563l-0.77539,-3.33789l2.58203,-2.23437l-3.4043,-0.29102z"></path></g></g></svg>